<svg width="24" height="24" viewBox="0 0 24 24" fill="none" xmlns="http://www.w3.org/2000/svg">
<path d="M12 21.9999C17.523 21.9999 22 18.3064 22 13.7499C22 10.5289 19.7625 7.85044 16.5 6.49194L14.75 7.24994L15 9.99994L11.75 8.99994L8.5 9.99994V7.24994L7 6.49194C4.011 7.91844 2 10.6964 2 13.7499C2 18.3064 6.477 21.9999 12 21.9999Z" fill="#AC9ECE" stroke="#764BA2" stroke-width="2" stroke-linecap="round" stroke-linejoin="round"/>
<path d="M11.75 2L13.6545 4.5585L18 4.955L14.8315 7.2415L15.75 10.5L11.75 9L7.75 10.5L8.6685 7.2415L5.5 4.955L9.8455 4.5585L11.75 2Z" fill="#AC9ECE" stroke="#764BA2" stroke-width="2" stroke-linecap="round" stroke-linejoin="round"/>
</svg>
